<?xml version="1.0" encoding="utf-8"?>
<svg viewBox="0 0 160 40.297" xmlns="http://www.w3.org/2000/svg">
  <path d="M 73.172 17.152 C 73.172 18.219 72.852 19.105 72.212 19.812 C 71.572 20.519 70.552 20.992 69.152 21.232 L 73.572 26.552 C 73.932 26.992 74.329 27.309 74.762 27.502 C 75.195 27.695 75.712 27.839 76.312 27.932 L 76.312 28.692 L 72.452 28.692 L 67.552 22.412 C 67.379 22.185 67.215 22.005 67.062 21.872 C 66.909 21.739 66.749 21.635 66.582 21.562 C 66.415 21.489 66.222 21.442 66.002 21.422 C 65.782 21.402 65.519 21.392 65.212 21.392 L 65.212 25.552 C 65.212 26.045 65.242 26.449 65.302 26.762 C 65.362 27.075 65.489 27.319 65.682 27.492 C 65.875 27.665 66.155 27.782 66.522 27.842 C 66.889 27.902 67.372 27.932 67.972 27.932 L 67.972 28.692 L 60.912 28.692 L 60.912 27.932 C 61.379 27.919 61.755 27.879 62.042 27.812 C 62.329 27.745 62.552 27.632 62.712 27.472 C 62.872 27.312 62.979 27.085 63.032 26.792 C 63.085 26.499 63.112 26.119 63.112 25.652 L 63.112 16.332 C 63.112 15.865 63.089 15.489 63.042 15.202 C 62.995 14.915 62.902 14.689 62.762 14.522 C 62.622 14.355 62.419 14.242 62.152 14.182 C 61.885 14.122 61.539 14.079 61.112 14.052 L 61.112 13.292 L 67.392 13.292 C 69.232 13.292 70.655 13.632 71.662 14.312 C 72.669 14.992 73.172 15.939 73.172 17.152 Z M 65.212 14.572 L 65.212 20.392 L 66.632 20.392 C 67.965 20.392 68.955 20.149 69.602 19.662 C 70.249 19.175 70.572 18.372 70.572 17.252 C 70.572 16.172 70.315 15.399 69.802 14.932 C 69.289 14.465 68.485 14.232 67.392 14.232 L 65.552 14.232 C 65.325 14.232 65.212 14.345 65.212 14.572 Z M 85.448 26.272 L 86.068 26.832 C 84.935 28.205 83.528 28.892 81.848 28.892 C 81.061 28.892 80.348 28.762 79.708 28.502 C 79.068 28.242 78.518 27.875 78.058 27.402 C 77.598 26.929 77.241 26.362 76.988 25.702 C 76.735 25.042 76.608 24.312 76.608 23.512 C 76.608 22.699 76.741 21.945 77.008 21.252 C 77.275 20.559 77.651 19.965 78.138 19.472 C 78.625 18.979 79.205 18.592 79.878 18.312 C 80.551 18.032 81.288 17.892 82.088 17.892 C 83.381 17.892 84.381 18.242 85.088 18.942 C 85.795 19.642 86.148 20.645 86.148 21.952 C 86.148 22.139 86.111 22.252 86.038 22.292 C 85.965 22.332 85.795 22.352 85.528 22.352 L 78.948 22.352 C 78.921 22.459 78.901 22.589 78.888 22.742 C 78.875 22.895 78.868 23.065 78.868 23.252 C 78.868 23.945 78.951 24.575 79.118 25.142 C 79.285 25.709 79.525 26.192 79.838 26.592 C 80.151 26.992 80.525 27.302 80.958 27.522 C 81.391 27.742 81.875 27.852 82.408 27.852 C 82.968 27.852 83.488 27.729 83.968 27.482 C 84.448 27.235 84.941 26.832 85.448 26.272 Z M 79.088 21.432 L 82.768 21.432 C 83.035 21.432 83.248 21.425 83.408 21.412 C 83.568 21.399 83.688 21.372 83.768 21.332 C 83.848 21.292 83.901 21.235 83.928 21.162 C 83.955 21.089 83.968 20.992 83.968 20.872 C 83.968 20.259 83.771 19.769 83.378 19.402 C 82.985 19.035 82.448 18.852 81.768 18.852 C 80.328 18.852 79.435 19.712 79.088 21.432 Z M 89.205 27.992 L 88.805 28.692 L 88.365 28.692 L 88.365 25.252 L 88.865 25.252 C 89.385 27.132 90.332 28.072 91.705 28.072 C 92.239 28.072 92.662 27.942 92.975 27.682 C 93.289 27.422 93.445 27.025 93.445 26.492 C 93.445 26.292 93.415 26.122 93.355 25.982 C 93.295 25.842 93.182 25.695 93.015 25.542 C 92.849 25.389 92.615 25.212 92.315 25.012 C 92.015 24.812 91.619 24.559 91.125 24.252 C 90.672 23.972 90.279 23.712 89.945 23.472 C 89.612 23.232 89.332 22.989 89.105 22.742 C 88.879 22.495 88.709 22.232 88.595 21.952 C 88.482 21.672 88.425 21.345 88.425 20.972 C 88.425 20.519 88.502 20.102 88.655 19.722 C 88.809 19.342 89.019 19.019 89.285 18.752 C 89.552 18.485 89.865 18.275 90.225 18.122 C 90.585 17.969 90.979 17.892 91.405 17.892 C 91.765 17.892 92.139 17.949 92.525 18.062 C 92.912 18.175 93.252 18.325 93.545 18.512 L 93.945 18.092 L 94.325 18.092 L 94.325 20.972 L 93.805 20.972 C 93.512 20.159 93.192 19.579 92.845 19.232 C 92.499 18.885 92.072 18.712 91.565 18.712 C 91.112 18.712 90.749 18.832 90.475 19.072 C 90.202 19.312 90.065 19.645 90.065 20.072 C 90.065 20.299 90.102 20.495 90.175 20.662 C 90.249 20.829 90.365 20.992 90.525 21.152 C 90.685 21.312 90.889 21.475 91.135 21.642 C 91.382 21.809 91.679 21.999 92.025 22.212 C 92.599 22.572 93.089 22.892 93.495 23.172 C 93.902 23.452 94.232 23.729 94.485 24.002 C 94.739 24.275 94.925 24.559 95.045 24.852 C 95.165 25.145 95.225 25.479 95.225 25.852 C 95.225 26.799 94.919 27.542 94.305 28.082 C 93.692 28.622 92.885 28.892 91.885 28.892 C 90.845 28.892 89.952 28.592 89.205 27.992 Z M 105.983 26.272 L 106.603 26.832 C 105.47 28.205 104.063 28.892 102.383 28.892 C 101.596 28.892 100.883 28.762 100.243 28.502 C 99.603 28.242 99.053 27.875 98.593 27.402 C 98.133 26.929 97.776 26.362 97.523 25.702 C 97.27 25.042 97.143 24.312 97.143 23.512 C 97.143 22.699 97.276 21.945 97.543 21.252 C 97.81 20.559 98.186 19.965 98.673 19.472 C 99.16 18.979 99.74 18.592 100.413 18.312 C 101.086 18.032 101.823 17.892 102.623 17.892 C 103.916 17.892 104.916 18.242 105.623 18.942 C 106.33 19.642 106.683 20.645 106.683 21.952 C 106.683 22.139 106.646 22.252 106.573 22.292 C 106.5 22.332 106.33 22.352 106.063 22.352 L 99.483 22.352 C 99.456 22.459 99.436 22.589 99.423 22.742 C 99.41 22.895 99.403 23.065 99.403 23.252 C 99.403 23.945 99.486 24.575 99.653 25.142 C 99.82 25.709 100.06 26.192 100.373 26.592 C 100.686 26.992 101.06 27.302 101.493 27.522 C 101.926 27.742 102.41 27.852 102.943 27.852 C 103.503 27.852 104.023 27.729 104.503 27.482 C 104.983 27.235 105.476 26.832 105.983 26.272 Z M 99.623 21.432 L 103.303 21.432 C 103.57 21.432 103.783 21.425 103.943 21.412 C 104.103 21.399 104.223 21.372 104.303 21.332 C 104.383 21.292 104.436 21.235 104.463 21.162 C 104.49 21.089 104.503 20.992 104.503 20.872 C 104.503 20.259 104.306 19.769 103.913 19.402 C 103.52 19.035 102.983 18.852 102.303 18.852 C 100.863 18.852 99.97 19.712 99.623 21.432 Z M 114.6 24.352 L 114.6 22.772 C 113.84 23.065 113.197 23.352 112.67 23.632 C 112.144 23.912 111.72 24.192 111.4 24.472 C 111.08 24.752 110.85 25.032 110.71 25.312 C 110.57 25.592 110.5 25.879 110.5 26.172 C 110.5 26.612 110.647 26.972 110.94 27.252 C 111.234 27.532 111.62 27.672 112.1 27.672 C 112.447 27.672 112.77 27.585 113.07 27.412 C 113.37 27.239 113.634 27.002 113.86 26.702 C 114.087 26.402 114.267 26.049 114.4 25.642 C 114.534 25.235 114.6 24.805 114.6 24.352 Z M 111.72 23.172 L 114.6 21.912 L 114.6 21.092 C 114.6 19.465 113.907 18.652 112.52 18.652 C 112.294 18.652 112.1 18.672 111.94 18.712 C 111.78 18.752 111.647 18.819 111.54 18.912 C 111.434 19.005 111.337 19.139 111.25 19.312 C 111.164 19.485 111.08 19.699 111 19.952 C 110.854 20.339 110.71 20.595 110.57 20.722 C 110.43 20.849 110.227 20.912 109.96 20.912 C 109.294 20.912 108.96 20.579 108.96 19.912 C 108.96 19.272 109.3 18.775 109.98 18.422 C 110.66 18.069 111.627 17.892 112.88 17.892 C 114.214 17.892 115.16 18.129 115.72 18.602 C 116.28 19.075 116.56 19.879 116.56 21.012 L 116.56 25.492 C 116.56 27.012 116.86 27.772 117.46 27.772 C 117.647 27.772 117.827 27.749 118 27.702 C 118.174 27.655 118.32 27.532 118.44 27.332 L 118.72 27.812 C 118.56 28.119 118.267 28.375 117.84 28.582 C 117.414 28.789 116.967 28.892 116.5 28.892 C 115.914 28.892 115.477 28.705 115.19 28.332 C 114.904 27.959 114.76 27.432 114.76 26.752 L 114.66 26.752 C 114.314 27.405 113.834 27.922 113.22 28.302 C 112.607 28.682 111.927 28.872 111.18 28.872 C 110.34 28.872 109.68 28.659 109.2 28.232 C 108.72 27.805 108.48 27.232 108.48 26.512 C 108.48 26.192 108.537 25.885 108.65 25.592 C 108.764 25.299 108.947 25.019 109.2 24.752 C 109.454 24.485 109.787 24.222 110.2 23.962 C 110.614 23.702 111.12 23.439 111.72 23.172 Z M 123.137 24.832 L 123.137 25.512 C 123.137 26.059 123.151 26.492 123.177 26.812 C 123.204 27.132 123.274 27.375 123.387 27.542 C 123.501 27.709 123.664 27.819 123.877 27.872 C 124.091 27.925 124.391 27.965 124.777 27.992 L 124.777 28.692 L 119.457 28.692 L 119.457 27.992 C 119.844 27.979 120.151 27.942 120.377 27.882 C 120.604 27.822 120.777 27.712 120.897 27.552 C 121.017 27.392 121.094 27.162 121.127 26.862 C 121.161 26.562 121.177 26.159 121.177 25.652 L 121.177 23.312 C 121.177 22.405 121.167 21.699 121.147 21.192 C 121.127 20.685 121.061 20.312 120.947 20.072 C 120.834 19.832 120.657 19.689 120.417 19.642 C 120.177 19.595 119.844 19.572 119.417 19.572 L 119.417 18.872 L 122.917 18.112 L 123.197 20.592 L 123.277 20.592 C 123.451 20.192 123.667 19.825 123.927 19.492 C 124.187 19.159 124.471 18.875 124.777 18.642 C 125.084 18.409 125.404 18.225 125.737 18.092 C 126.071 17.959 126.411 17.892 126.757 17.892 C 127.184 17.892 127.521 17.995 127.767 18.202 C 128.014 18.409 128.137 18.685 128.137 19.032 C 128.137 19.352 128.037 19.602 127.837 19.782 C 127.637 19.962 127.351 20.052 126.977 20.052 C 126.764 20.052 126.584 20.025 126.437 19.972 C 126.291 19.919 126.161 19.862 126.047 19.802 C 125.934 19.742 125.827 19.685 125.727 19.632 C 125.627 19.579 125.517 19.552 125.397 19.552 C 125.037 19.552 124.677 19.782 124.317 20.242 C 123.957 20.702 123.677 21.285 123.477 21.992 C 123.371 22.379 123.287 22.815 123.227 23.302 C 123.167 23.789 123.137 24.299 123.137 24.832 Z M 137.535 26.452 L 138.135 27.032 C 137.655 27.619 137.035 28.075 136.275 28.402 C 135.515 28.729 134.695 28.892 133.815 28.892 C 133.109 28.892 132.459 28.762 131.865 28.502 C 131.272 28.242 130.762 27.875 130.335 27.402 C 129.909 26.929 129.579 26.359 129.345 25.692 C 129.112 25.025 128.995 24.285 128.995 23.472 C 128.995 22.619 129.129 21.849 129.395 21.162 C 129.662 20.475 130.039 19.889 130.525 19.402 C 131.012 18.915 131.599 18.542 132.285 18.282 C 132.972 18.022 133.729 17.892 134.555 17.892 C 135.075 17.892 135.549 17.935 135.975 18.022 C 136.402 18.109 136.772 18.229 137.085 18.382 C 137.399 18.535 137.642 18.722 137.815 18.942 C 137.989 19.162 138.075 19.399 138.075 19.652 C 138.075 19.919 137.989 20.125 137.815 20.272 C 137.642 20.419 137.402 20.492 137.095 20.492 C 136.855 20.492 136.655 20.442 136.495 20.342 C 136.335 20.242 136.129 20.019 135.875 19.672 C 135.609 19.365 135.352 19.149 135.105 19.022 C 134.859 18.895 134.542 18.832 134.155 18.832 C 133.209 18.832 132.492 19.199 132.005 19.932 C 131.519 20.665 131.275 21.745 131.275 23.172 C 131.275 24.705 131.545 25.869 132.085 26.662 C 132.625 27.455 133.415 27.852 134.455 27.852 C 135.015 27.852 135.542 27.742 136.035 27.522 C 136.529 27.302 137.029 26.945 137.535 26.452 Z M 142.893 22.952 L 142.893 25.512 C 142.893 26.059 142.906 26.492 142.933 26.812 C 142.959 27.132 143.029 27.375 143.143 27.542 C 143.256 27.709 143.419 27.819 143.633 27.872 C 143.846 27.925 144.146 27.965 144.533 27.992 L 144.533 28.692 L 139.213 28.692 L 139.213 27.992 C 139.599 27.965 139.906 27.925 140.133 27.872 C 140.359 27.819 140.533 27.712 140.653 27.552 C 140.773 27.392 140.849 27.162 140.883 26.862 C 140.916 26.562 140.933 26.159 140.933 25.652 L 140.933 17.272 C 140.933 16.485 140.923 15.859 140.903 15.392 C 140.883 14.925 140.846 14.572 140.793 14.332 C 140.766 14.172 140.723 14.042 140.663 13.942 C 140.603 13.842 140.513 13.762 140.393 13.702 C 140.273 13.642 140.113 13.599 139.913 13.572 C 139.713 13.545 139.466 13.532 139.173 13.532 L 139.173 12.852 L 142.853 12.092 L 142.853 19.712 L 142.933 19.712 C 143.133 19.445 143.383 19.202 143.683 18.982 C 143.983 18.762 144.306 18.572 144.653 18.412 C 144.999 18.252 145.363 18.125 145.743 18.032 C 146.123 17.939 146.493 17.892 146.853 17.892 C 147.466 17.892 148.029 17.999 148.543 18.212 C 149.056 18.425 149.453 18.712 149.733 19.072 C 149.959 19.379 150.126 19.782 150.233 20.282 C 150.339 20.782 150.393 21.459 150.393 22.312 L 150.393 25.512 C 150.393 26.059 150.406 26.489 150.433 26.802 C 150.459 27.115 150.529 27.359 150.643 27.532 C 150.756 27.705 150.919 27.819 151.133 27.872 C 151.346 27.925 151.646 27.965 152.033 27.992 L 152.033 28.692 L 146.733 28.692 L 146.733 27.992 C 147.106 27.979 147.406 27.942 147.633 27.882 C 147.859 27.822 148.029 27.712 148.143 27.552 C 148.256 27.392 148.329 27.162 148.363 26.862 C 148.396 26.562 148.413 26.159 148.413 25.652 L 148.413 23.132 C 148.413 21.639 148.239 20.575 147.893 19.942 C 147.546 19.309 146.966 18.992 146.153 18.992 C 145.526 18.992 144.956 19.152 144.443 19.472 C 143.929 19.792 143.526 20.232 143.233 20.792 C 143.166 20.939 143.109 21.075 143.063 21.202 C 143.016 21.329 142.979 21.472 142.953 21.632 C 142.926 21.792 142.909 21.975 142.903 22.182 C 142.896 22.389 142.893 22.645 142.893 22.952 Z" style="fill: rgb(167, 180, 175); white-space: pre;"/>
  <path d="M 94.723 96.251 L 94.213 95.871 C 93.98 95.738 93.813 95.618 93.713 95.511 C 93.62 95.404 93.573 95.268 93.573 95.101 C 93.573 94.888 93.663 94.584 93.843 94.191 C 94.023 93.791 94.336 93.164 94.783 92.311 C 94.916 92.038 95.163 91.548 95.523 90.841 C 96.763 88.474 97.383 87.184 97.383 86.971 C 97.356 86.931 97.343 86.868 97.343 86.781 C 97.343 86.568 97.516 86.374 97.863 86.201 C 98.35 85.714 98.753 85.191 99.073 84.631 C 99.286 84.164 99.576 83.604 99.943 82.951 C 100.303 82.304 100.75 81.531 101.283 80.631 C 101.536 80.184 101.92 79.534 102.433 78.681 C 103.226 77.274 104.24 75.738 105.473 74.071 C 105.966 73.411 106.373 73.091 106.693 73.111 C 107.1 73.111 107.553 73.298 108.053 73.671 C 108.553 74.044 108.9 74.468 109.093 74.941 C 109.18 75.088 109.223 75.408 109.223 75.901 C 109.223 76.561 109.146 77.681 108.993 79.261 C 108.953 79.534 108.91 79.971 108.863 80.571 C 108.803 81.531 108.71 82.554 108.583 83.641 C 108.343 86.034 108.17 87.901 108.063 89.241 C 107.956 90.588 107.903 91.848 107.903 93.021 C 107.903 93.614 107.916 94.051 107.943 94.331 L 107.943 94.551 L 107.903 95.291 C 107.776 95.418 107.586 95.481 107.333 95.481 C 107.033 95.481 106.743 95.411 106.463 95.271 C 106.19 95.138 106.03 94.974 105.983 94.781 C 105.963 94.761 105.933 94.738 105.893 94.711 C 105.846 94.691 105.823 94.598 105.823 94.431 L 105.863 93.721 L 105.953 91.931 L 106.113 86.751 L 105.703 86.781 C 105.276 86.781 104.326 86.864 102.853 87.031 C 101.38 87.204 100.463 87.344 100.103 87.451 C 99.91 87.451 99.673 87.578 99.393 87.831 C 99.12 88.091 98.876 88.424 98.663 88.831 C 98.596 89.044 98.446 89.348 98.213 89.741 C 97.98 90.134 97.863 90.364 97.863 90.431 C 97.73 90.511 97.616 90.621 97.523 90.761 C 97.43 90.901 97.37 90.991 97.343 91.031 C 97.343 91.271 97.126 91.871 96.693 92.831 C 96.253 93.791 95.82 94.591 95.393 95.231 L 94.723 96.251 Z M 100.833 85.561 C 100.96 85.541 101.236 85.494 101.663 85.421 C 102.09 85.348 102.476 85.298 102.823 85.271 C 104.356 84.911 105.293 84.731 105.633 84.731 C 105.786 84.731 105.926 84.764 106.053 84.831 C 106.113 84.911 106.183 84.968 106.263 85.001 C 106.336 85.034 106.383 85.051 106.403 85.051 C 106.443 84.924 106.576 83.768 106.803 81.581 C 107.03 79.394 107.153 77.938 107.173 77.211 L 107.263 75.611 C 107.136 75.611 106.86 75.858 106.433 76.351 C 106.006 76.838 105.533 77.471 105.013 78.251 C 104.486 79.031 104.023 79.824 103.623 80.631 C 103.41 81.018 103.2 81.378 102.993 81.711 C 102.793 82.038 102.65 82.201 102.563 82.201 C 102.416 82.354 102.063 82.931 101.503 83.931 C 100.95 84.931 100.726 85.474 100.833 85.561 ZM 111.555 93.691 C 111.381 93.564 111.265 93.448 111.205 93.341 C 111.138 93.234 111.105 93.074 111.105 92.861 C 111.105 92.668 111.115 92.508 111.135 92.381 C 111.201 91.654 111.361 90.811 111.615 89.851 L 111.775 89.211 C 111.841 88.678 112.215 87.558 112.895 85.851 C 113.581 84.144 114.138 82.981 114.565 82.361 C 114.731 82.254 114.911 82.201 115.105 82.201 C 115.385 82.201 115.618 82.298 115.805 82.491 C 115.938 82.578 116.005 82.738 116.005 82.971 C 116.005 83.184 115.925 83.498 115.765 83.911 C 115.605 84.331 115.331 84.944 114.945 85.751 C 114.858 85.924 114.715 86.244 114.515 86.711 C 114.308 87.184 114.205 87.464 114.205 87.551 C 114.205 87.591 114.218 87.611 114.245 87.611 C 114.285 87.611 114.325 87.594 114.365 87.561 C 114.411 87.528 114.455 87.501 114.495 87.481 C 114.728 87.074 115.298 86.521 116.205 85.821 C 117.111 85.114 117.738 84.678 118.085 84.511 C 118.231 84.424 118.421 84.338 118.655 84.251 C 118.888 84.164 119.048 84.101 119.135 84.061 C 119.475 83.888 119.881 83.801 120.355 83.801 C 120.655 83.801 120.915 83.851 121.135 83.951 C 121.361 84.044 121.518 84.188 121.605 84.381 C 121.625 84.528 121.681 84.644 121.775 84.731 C 121.875 84.818 121.945 84.871 121.985 84.891 C 122.051 84.891 122.095 84.918 122.115 84.971 C 122.135 85.024 122.145 85.061 122.145 85.081 C 122.145 85.234 122.058 85.324 121.885 85.351 C 121.718 85.384 121.411 85.411 120.965 85.431 C 120.725 85.458 120.478 85.511 120.225 85.591 C 119.971 85.678 119.715 85.784 119.455 85.911 C 118.261 86.598 117.371 87.131 116.785 87.511 C 116.198 87.898 115.605 88.421 115.005 89.081 C 114.771 89.341 114.465 89.801 114.085 90.461 C 113.931 90.608 113.775 90.998 113.615 91.631 C 113.455 92.258 113.375 92.644 113.375 92.791 C 113.355 92.858 113.311 92.981 113.245 93.161 C 113.185 93.341 113.091 93.518 112.965 93.691 C 112.705 94.031 112.491 94.201 112.325 94.201 C 112.131 94.201 111.875 94.031 111.555 93.691 ZM 125.953 94.461 C 125.653 94.501 125.429 94.521 125.283 94.521 C 124.489 94.521 123.836 94.278 123.323 93.791 C 122.816 93.298 122.563 92.614 122.563 91.741 C 122.476 90.801 122.683 89.638 123.183 88.251 C 123.683 86.864 124.316 85.701 125.083 84.761 C 125.616 84.141 126.076 83.641 126.463 83.261 C 126.849 82.874 127.203 82.618 127.523 82.491 C 127.969 82.298 128.469 82.201 129.023 82.201 C 129.409 82.288 129.789 82.448 130.163 82.681 C 130.536 82.914 130.723 83.151 130.723 83.391 L 130.883 83.551 C 131.009 83.551 131.126 83.704 131.233 84.011 C 131.339 84.318 131.393 84.654 131.393 85.021 C 131.393 85.321 131.339 85.578 131.233 85.791 C 131.146 86.191 131.003 86.541 130.803 86.841 C 130.596 87.141 130.396 87.291 130.203 87.291 C 129.969 87.291 129.853 87.354 129.853 87.481 C 129.853 87.568 129.809 87.611 129.723 87.611 C 129.616 87.611 129.489 87.548 129.343 87.421 C 129.196 87.294 129.089 87.144 129.023 86.971 C 129.023 86.904 129.066 86.724 129.153 86.431 C 129.239 86.131 129.323 85.798 129.403 85.431 C 129.469 85.178 129.503 84.954 129.503 84.761 C 129.503 84.334 129.343 84.121 129.023 84.121 C 128.849 84.121 128.679 84.164 128.513 84.251 C 127.659 84.718 126.903 85.464 126.243 86.491 C 125.576 87.518 125.019 88.924 124.573 90.711 C 124.466 91.184 124.413 91.558 124.413 91.831 C 124.413 92.044 124.429 92.218 124.463 92.351 C 124.496 92.478 124.533 92.551 124.573 92.571 C 124.679 92.611 124.903 92.631 125.243 92.631 C 126.036 92.631 126.593 92.538 126.913 92.351 C 127.593 91.984 128.349 91.491 129.183 90.871 C 129.269 90.811 129.396 90.701 129.563 90.541 C 129.736 90.381 129.896 90.268 130.043 90.201 C 130.196 89.968 130.336 89.824 130.463 89.771 C 130.589 89.718 130.793 89.691 131.073 89.691 C 131.346 89.778 131.569 89.891 131.743 90.031 C 131.916 90.164 131.916 90.274 131.743 90.361 C 131.676 90.361 131.633 90.384 131.613 90.431 C 131.593 90.471 131.583 90.501 131.583 90.521 C 131.623 90.628 131.453 90.894 131.073 91.321 C 130.686 91.748 130.259 92.148 129.793 92.521 C 129.319 92.894 128.999 93.081 128.833 93.081 C 128.746 93.081 128.669 93.091 128.603 93.111 C 128.543 93.138 128.513 93.191 128.513 93.271 C 128.513 93.358 128.186 93.558 127.533 93.871 C 126.886 94.178 126.359 94.374 125.953 94.461 ZM 134.843 93.081 L 134.653 93.081 C 134.333 93.081 134.086 93.008 133.913 92.861 C 133.746 92.708 133.636 92.591 133.583 92.511 C 133.53 92.424 133.503 92.318 133.503 92.191 C 133.503 92.104 133.576 91.708 133.723 91.001 L 134.013 89.951 C 134.226 89.071 134.42 88.344 134.593 87.771 C 134.673 87.238 134.836 86.671 135.083 86.071 C 135.33 85.478 135.473 85.118 135.513 84.991 C 135.686 84.371 136.02 83.411 136.513 82.111 L 137.473 79.511 C 138.22 77.484 138.666 76.248 138.813 75.801 L 139.323 74.391 C 139.323 74.051 139.493 73.881 139.833 73.881 C 140.133 73.881 140.386 74.048 140.593 74.381 C 140.793 74.708 140.893 75.084 140.893 75.511 C 140.893 75.831 140.83 76.141 140.703 76.441 C 140.403 77.081 140.076 77.888 139.723 78.861 C 139.37 79.828 139.14 80.461 139.033 80.761 C 138.313 82.808 137.793 84.174 137.473 84.861 C 137.473 84.948 137.44 85.098 137.373 85.311 C 137.306 85.524 137.233 85.714 137.153 85.881 L 136.793 86.591 C 136.793 86.651 136.676 87.098 136.443 87.931 C 136.143 88.851 135.963 89.524 135.903 89.951 C 136.01 89.758 136.233 89.464 136.573 89.071 C 136.913 88.671 137.233 88.344 137.533 88.091 C 138.706 87.091 139.433 86.494 139.713 86.301 C 139.966 86.148 140.18 86.008 140.353 85.881 C 140.52 85.754 140.636 85.671 140.703 85.631 C 140.703 85.524 140.82 85.471 141.053 85.471 C 141.14 85.471 141.186 85.458 141.193 85.431 C 141.206 85.411 141.213 85.358 141.213 85.271 C 141.213 85.124 141.46 84.991 141.953 84.871 C 142.44 84.758 142.876 84.701 143.263 84.701 C 143.516 84.701 143.72 84.754 143.873 84.861 C 144.02 84.968 144.21 85.201 144.443 85.561 C 144.81 86.074 144.993 86.631 144.993 87.231 C 144.993 87.571 144.926 87.921 144.793 88.281 C 144.793 88.454 144.766 88.718 144.713 89.071 C 144.66 89.418 144.633 89.721 144.633 89.981 L 144.443 91.001 L 144.953 91.001 C 145.106 91.001 145.253 91.024 145.393 91.071 C 145.526 91.111 145.616 91.141 145.663 91.161 C 145.856 91.394 146.026 91.511 146.173 91.511 C 146.366 91.511 146.463 91.588 146.463 91.741 C 146.463 91.828 146.42 91.934 146.333 92.061 C 146.246 92.188 146.13 92.294 145.983 92.381 C 145.43 92.721 144.96 92.891 144.573 92.891 C 144.213 92.891 143.84 92.721 143.453 92.381 C 142.986 91.908 142.753 91.341 142.753 90.681 C 142.753 90.341 142.816 89.938 142.943 89.471 L 143.033 88.441 C 143.08 87.928 143.103 87.608 143.103 87.481 C 143.103 86.994 142.986 86.751 142.753 86.751 C 142.453 86.751 141.88 87.011 141.033 87.531 C 140.193 88.051 139.326 88.701 138.433 89.481 C 137.533 90.261 136.816 91.044 136.283 91.831 C 135.963 92.238 135.693 92.544 135.473 92.751 C 135.246 92.951 135.036 93.061 134.843 93.081 ZM 151.679 80.791 C 151.526 80.644 151.396 80.391 151.289 80.031 C 151.182 79.664 151.182 79.481 151.289 79.481 C 151.462 79.461 151.659 79.274 151.879 78.921 C 152.106 78.568 152.209 78.274 152.189 78.041 C 152.189 77.954 152.219 77.874 152.279 77.801 C 152.346 77.728 152.422 77.681 152.509 77.661 C 152.676 77.554 152.826 77.501 152.959 77.501 C 153.319 77.501 153.649 77.758 153.949 78.271 C 154.076 78.544 154.139 78.788 154.139 79.001 C 154.139 79.194 154.086 79.391 153.979 79.591 C 153.872 79.798 153.679 80.061 153.399 80.381 C 153.039 80.868 152.699 81.111 152.379 81.111 C 152.166 81.111 151.932 81.004 151.679 80.791 Z M 148.569 93.791 C 148.269 93.491 148.119 93.064 148.119 92.511 C 148.119 92.211 148.172 91.954 148.279 91.741 C 148.279 91.634 148.302 91.504 148.349 91.351 C 148.389 91.204 148.409 91.111 148.409 91.071 C 148.389 90.938 148.476 90.584 148.669 90.011 C 149.049 89.158 149.559 87.654 150.199 85.501 C 150.199 85.394 150.242 85.304 150.329 85.231 C 150.416 85.151 150.546 85.101 150.719 85.081 C 150.886 85.041 151.002 85.021 151.069 85.021 C 151.196 85.021 151.306 85.068 151.399 85.161 C 151.499 85.261 151.632 85.438 151.799 85.691 C 151.932 85.818 151.999 86.011 151.999 86.271 C 151.999 86.671 151.859 87.161 151.579 87.741 C 151.299 88.361 151.119 88.894 151.039 89.341 C 150.779 89.914 150.576 90.448 150.429 90.941 C 150.382 91.068 150.319 91.324 150.239 91.711 C 150.152 92.091 150.032 92.398 149.879 92.631 C 149.752 93.231 149.636 93.648 149.529 93.881 C 149.422 94.114 149.306 94.231 149.179 94.231 C 149.032 94.231 148.829 94.084 148.569 93.791 ZM 157.182 92.861 C 156.942 92.688 156.649 91.971 156.302 90.711 C 155.949 89.458 155.675 88.244 155.482 87.071 C 155.395 86.618 155.225 86.008 154.972 85.241 C 154.885 84.901 154.842 84.668 154.842 84.541 C 154.842 84.154 155.002 83.864 155.322 83.671 C 155.409 83.611 155.532 83.564 155.692 83.531 C 155.852 83.498 155.985 83.491 156.092 83.511 C 156.559 83.684 156.985 84.988 157.372 87.421 C 157.432 88.041 157.529 88.594 157.662 89.081 C 157.789 89.574 157.862 89.864 157.882 89.951 C 157.949 90.078 158.022 90.211 158.102 90.351 C 158.189 90.484 158.285 90.551 158.392 90.551 C 158.459 90.551 158.535 90.511 158.622 90.431 C 159.022 90.024 159.459 89.511 159.932 88.891 C 160.445 88.184 160.795 87.714 160.982 87.481 C 161.222 87.121 161.532 86.694 161.912 86.201 C 161.979 86.114 162.129 85.911 162.362 85.591 C 162.595 85.271 162.819 85.001 163.032 84.781 C 163.245 84.554 163.429 84.421 163.582 84.381 C 163.642 84.361 163.735 84.351 163.862 84.351 C 164.229 84.351 164.412 84.498 164.412 84.791 C 164.412 85.071 164.219 85.488 163.832 86.041 C 163.705 86.214 163.572 86.444 163.432 86.731 C 163.292 87.018 163.202 87.184 163.162 87.231 C 162.929 87.698 162.495 88.358 161.862 89.211 C 161.235 90.064 160.815 90.598 160.602 90.811 C 160.562 90.851 160.385 91.001 160.072 91.261 C 159.765 91.514 159.482 91.824 159.222 92.191 C 158.542 92.831 158.052 93.151 157.752 93.151 C 157.559 93.151 157.369 93.054 157.182 92.861 ZM 170.742 93.691 C 170.209 94.158 169.569 94.391 168.822 94.391 C 168.289 94.391 167.782 94.264 167.302 94.011 C 166.822 93.758 166.422 93.404 166.102 92.951 C 165.829 92.611 165.626 92.228 165.492 91.801 C 165.366 91.374 165.302 90.851 165.302 90.231 C 165.302 90.018 165.326 89.591 165.372 88.951 C 165.432 88.164 165.692 87.344 166.152 86.491 C 166.612 85.638 167.182 84.874 167.862 84.201 C 168.549 83.528 169.222 83.064 169.882 82.811 C 170.222 82.598 170.532 82.491 170.812 82.491 C 170.959 82.491 171.106 82.501 171.252 82.521 C 171.406 82.541 171.566 82.564 171.732 82.591 C 172.206 82.651 172.566 82.741 172.812 82.861 C 173.052 82.974 173.259 83.151 173.432 83.391 C 173.966 83.924 174.232 84.541 174.232 85.241 C 174.146 85.754 173.816 86.341 173.242 87.001 C 172.662 87.661 171.969 88.194 171.162 88.601 C 170.776 88.728 170.339 88.791 169.852 88.791 C 169.186 88.791 168.652 88.654 168.252 88.381 C 168.059 88.314 167.909 88.281 167.802 88.281 C 167.609 88.281 167.466 88.411 167.372 88.671 C 167.272 88.924 167.179 89.391 167.092 90.071 C 167.072 90.224 167.062 90.438 167.062 90.711 C 167.062 91.804 167.426 92.404 168.152 92.511 C 168.646 92.618 168.999 92.671 169.212 92.671 C 169.466 92.671 169.752 92.584 170.072 92.411 L 170.682 92.061 C 170.809 91.994 170.926 91.908 171.032 91.801 C 171.139 91.694 171.236 91.598 171.322 91.511 C 171.362 91.471 171.426 91.404 171.512 91.311 C 171.599 91.211 171.679 91.144 171.752 91.111 C 171.826 91.084 171.896 91.071 171.962 91.071 C 172.049 91.071 172.146 91.118 172.252 91.211 C 172.359 91.304 172.442 91.374 172.502 91.421 C 172.696 91.421 172.739 91.554 172.632 91.821 C 172.526 92.088 172.296 92.398 171.942 92.751 C 171.589 93.098 171.189 93.411 170.742 93.691 Z M 170.712 86.911 C 171.072 86.758 171.439 86.491 171.812 86.111 C 172.186 85.724 172.372 85.404 172.372 85.151 C 172.372 84.891 172.279 84.678 172.092 84.511 C 171.899 84.338 171.632 84.251 171.292 84.251 C 171.032 84.251 170.839 84.271 170.712 84.311 C 170.412 84.398 170.059 84.628 169.652 85.001 C 169.252 85.374 168.902 85.754 168.602 86.141 C 168.302 86.521 168.186 86.744 168.252 86.811 C 168.359 87.004 168.772 87.101 169.492 87.101 C 169.986 87.101 170.392 87.038 170.712 86.911 ZM 177.461 94.941 C 177.081 94.788 176.707 94.568 176.341 94.281 C 175.981 93.994 175.737 93.744 175.611 93.531 C 175.611 93.491 175.611 93.418 175.611 93.311 C 175.611 93.204 175.641 93.134 175.701 93.101 C 175.767 93.068 175.884 93.051 176.051 93.051 C 176.417 93.051 176.994 93.094 177.781 93.181 C 178.254 93.181 178.787 93.121 179.381 93.001 C 179.981 92.888 180.311 92.754 180.371 92.601 C 180.437 92.601 180.471 92.591 180.471 92.571 C 180.471 92.531 180.384 92.424 180.211 92.251 C 180.171 92.251 180.077 92.214 179.931 92.141 C 179.777 92.068 179.681 92.031 179.641 92.031 C 179.641 91.944 179.544 91.831 179.351 91.691 C 179.157 91.551 178.944 91.428 178.711 91.321 C 178.091 90.808 177.654 90.431 177.401 90.191 C 177.141 89.944 177.044 89.768 177.111 89.661 L 177.111 89.501 C 176.964 89.501 176.797 89.291 176.611 88.871 C 176.431 88.458 176.341 88.071 176.341 87.711 C 176.341 87.324 176.507 86.791 176.841 86.111 C 177.167 85.424 177.544 84.868 177.971 84.441 C 178.571 83.888 179.344 83.301 180.291 82.681 C 181.244 82.061 181.997 81.668 182.551 81.501 C 182.911 81.348 183.274 81.271 183.641 81.271 C 183.981 81.271 184.267 81.348 184.501 81.501 C 184.781 81.668 185.054 81.911 185.321 82.231 C 185.587 82.551 185.764 82.841 185.851 83.101 C 185.851 83.568 185.801 84.021 185.701 84.461 C 185.607 84.894 185.464 85.111 185.271 85.111 C 185.251 85.111 185.217 85.124 185.171 85.151 C 185.131 85.171 185.111 85.224 185.111 85.311 C 185.111 85.391 185.067 85.501 184.981 85.641 C 184.894 85.781 184.777 85.914 184.631 86.041 C 184.164 86.381 183.781 86.551 183.481 86.551 C 183.247 86.551 183.097 86.434 183.031 86.201 C 182.991 86.161 182.947 86.098 182.901 86.011 C 182.861 85.924 182.807 85.881 182.741 85.881 C 182.721 85.881 182.684 85.844 182.631 85.771 C 182.577 85.698 182.551 85.598 182.551 85.471 C 182.551 85.404 182.577 85.334 182.631 85.261 C 182.684 85.188 182.721 85.138 182.741 85.111 C 182.867 85.111 183.081 84.861 183.381 84.361 C 183.681 83.861 183.831 83.524 183.831 83.351 C 183.831 83.224 183.814 83.151 183.781 83.131 C 183.747 83.111 183.647 83.101 183.481 83.101 C 181.814 83.848 180.777 84.411 180.371 84.791 C 180.311 84.924 180.264 85.011 180.231 85.051 C 180.197 85.091 180.137 85.111 180.051 85.111 C 180.051 84.924 179.487 85.651 178.361 87.291 C 178.314 87.331 178.264 87.458 178.211 87.671 C 178.157 87.884 178.131 88.068 178.131 88.221 C 178.091 88.388 178.071 88.484 178.071 88.511 C 178.071 88.591 178.107 88.674 178.181 88.761 C 178.254 88.848 178.357 88.938 178.491 89.031 C 178.617 89.131 178.744 89.234 178.871 89.341 C 179.977 90.174 180.751 90.798 181.191 91.211 C 181.631 91.624 181.891 91.971 181.971 92.251 C 182.251 92.678 182.391 93.061 182.391 93.401 C 182.391 93.661 182.294 93.884 182.101 94.071 C 181.907 94.264 181.621 94.448 181.241 94.621 C 181.007 94.728 180.611 94.818 180.051 94.891 C 179.497 94.964 178.954 95.001 178.421 95.001 C 178.121 95.001 177.801 94.981 177.461 94.941 Z" transform="matrix(1, 0, 0, 1, 0, -64.125)" style="fill: rgb(166, 71, 183); white-space: pre; visibility: hidden;"/>
  <path d="M 8.406 30.264 L 7.286 29.924 L 7.316 29.844 C 7.316 29.657 7.156 29.554 6.836 29.534 C 6.449 29.294 6.099 28.977 5.786 28.584 C 5.479 28.191 5.269 27.844 5.156 27.544 C 5.029 27.251 4.966 27.094 4.966 27.074 C 4.966 27.014 4.999 26.967 5.066 26.934 C 5.126 26.894 5.203 26.847 5.296 26.794 C 5.409 26.701 5.533 26.654 5.666 26.654 C 5.739 26.654 5.809 26.694 5.876 26.774 C 5.943 26.861 6.029 27.007 6.136 27.214 C 6.363 27.607 6.746 27.921 7.286 28.154 C 7.826 28.387 8.443 28.504 9.136 28.504 C 9.976 28.504 10.759 28.334 11.486 27.994 C 11.973 27.787 12.329 27.587 12.556 27.394 C 12.776 27.201 12.886 26.981 12.886 26.734 C 12.886 26.514 12.783 26.244 12.576 25.924 C 12.523 25.777 12.446 25.641 12.346 25.514 C 12.239 25.394 12.093 25.251 11.906 25.084 C 11.793 24.991 11.579 24.784 11.266 24.464 C 10.966 24.357 10.656 24.211 10.336 24.024 L 9.756 23.744 C 9.249 23.517 8.666 23.127 8.006 22.574 C 7.339 22.027 6.896 21.547 6.676 21.134 C 6.409 20.894 6.203 20.557 6.056 20.124 C 5.909 19.697 5.836 19.231 5.836 18.724 C 5.836 18.057 5.976 17.444 6.256 16.884 C 6.476 16.377 6.969 15.677 7.736 14.784 C 8.503 13.884 9.089 13.294 9.496 13.014 L 10.226 12.314 C 10.246 12.241 10.276 12.201 10.316 12.194 C 10.349 12.181 10.376 12.174 10.396 12.174 C 10.449 12.141 10.646 12.054 10.986 11.914 C 11.319 11.774 11.673 11.524 12.046 11.164 C 13.319 10.551 14.343 10.107 15.116 9.834 C 15.889 9.567 16.529 9.434 17.036 9.434 C 17.743 9.467 18.343 9.687 18.836 10.094 C 19.329 10.494 19.623 11.021 19.716 11.674 C 19.756 11.787 19.776 11.954 19.776 12.174 C 19.776 12.847 19.533 13.571 19.046 14.344 C 18.559 15.117 18.009 15.684 17.396 16.044 C 16.929 16.244 16.603 16.344 16.416 16.344 C 16.283 16.344 16.193 16.297 16.146 16.204 C 16.099 16.111 16.086 15.964 16.106 15.764 C 16.106 15.591 16.166 15.397 16.286 15.184 C 16.413 14.971 16.689 14.621 17.116 14.134 C 17.883 13.034 18.266 12.214 18.266 11.674 C 18.266 11.354 18.126 11.184 17.846 11.164 C 17.639 11.111 17.119 11.157 16.286 11.304 C 15.459 11.457 15.046 11.581 15.046 11.674 C 15.046 11.694 15.039 11.727 15.026 11.774 C 15.019 11.821 14.989 11.834 14.936 11.814 C 14.856 11.794 14.163 12.181 12.856 12.974 C 11.549 13.767 10.879 14.211 10.846 14.304 C 10.826 14.397 10.756 14.494 10.636 14.594 C 10.516 14.701 10.369 14.791 10.196 14.864 C 9.843 15.071 9.516 15.371 9.216 15.764 C 8.923 16.151 8.569 16.711 8.156 17.444 C 7.929 17.757 7.746 18.101 7.606 18.474 C 7.466 18.847 7.396 19.184 7.396 19.484 C 7.396 19.691 7.426 19.867 7.486 20.014 C 7.579 20.334 7.869 20.721 8.356 21.174 C 8.836 21.634 9.443 22.077 10.176 22.504 C 11.123 23.051 11.919 23.581 12.566 24.094 C 13.213 24.607 13.619 25.041 13.786 25.394 C 14.213 25.987 14.426 26.651 14.426 27.384 C 14.426 27.644 14.399 27.884 14.346 28.104 C 14.193 28.424 13.959 28.737 13.646 29.044 C 13.326 29.351 13.056 29.497 12.836 29.484 C 12.649 29.537 12.489 29.607 12.356 29.694 C 12.223 29.774 12.109 29.834 12.016 29.874 C 11.816 30.001 11.326 30.107 10.546 30.194 C 9.773 30.281 9.059 30.304 8.406 30.264 ZM 20.474 28.664 C 20.174 28.611 19.87 28.411 19.564 28.064 C 19.257 27.717 19.057 27.397 18.964 27.104 C 18.964 27.064 18.944 27.021 18.904 26.974 C 18.87 26.927 18.844 26.894 18.824 26.874 C 18.75 26.821 18.714 26.514 18.714 25.954 C 18.714 25.507 18.737 25.041 18.784 24.554 C 18.83 24.067 18.89 23.674 18.964 23.374 L 19.464 21.894 L 19.864 20.774 L 20.614 19.144 L 19.494 18.844 C 19.367 18.824 19.26 18.757 19.174 18.644 C 19.087 18.531 19.044 18.427 19.044 18.334 C 19.044 18.187 19.124 18.007 19.284 17.794 C 19.444 17.574 19.57 17.464 19.664 17.464 C 19.717 17.484 19.867 17.494 20.114 17.494 C 20.674 17.494 21.094 17.467 21.374 17.414 C 21.56 17.341 21.69 17.191 21.764 16.964 C 21.837 16.817 21.927 16.631 22.034 16.404 C 22.134 16.177 22.23 15.971 22.324 15.784 C 22.377 15.677 22.467 15.507 22.594 15.274 C 22.714 15.041 22.867 14.774 23.054 14.474 C 23.087 14.414 23.17 14.277 23.304 14.064 C 23.437 13.851 23.597 13.671 23.784 13.524 C 23.91 13.391 24.067 13.324 24.254 13.324 C 24.44 13.324 24.684 13.444 24.984 13.684 C 25.024 13.744 25.074 13.821 25.134 13.914 C 25.2 14.007 25.234 14.091 25.234 14.164 C 25.234 14.237 25.16 14.397 25.014 14.644 C 24.9 14.864 24.794 15.064 24.694 15.244 C 24.587 15.417 24.497 15.571 24.424 15.704 C 24.197 16.077 24.037 16.357 23.944 16.544 C 23.757 16.784 23.664 16.971 23.664 17.104 C 23.664 17.237 23.787 17.304 24.034 17.304 C 24.294 17.304 24.73 17.247 25.344 17.134 C 25.61 17.094 25.79 17.074 25.884 17.074 C 26.537 17.074 26.89 17.344 26.944 17.884 C 26.964 17.997 26.974 18.131 26.974 18.284 C 26.974 18.544 26.884 18.701 26.704 18.754 C 26.53 18.814 26.134 18.844 25.514 18.844 C 24.92 18.937 24.304 18.984 23.664 18.984 C 23.557 18.984 23.434 18.987 23.294 18.994 C 23.154 19.001 23.007 19.024 22.854 19.064 C 22.707 19.104 22.6 19.161 22.534 19.234 C 22.467 19.307 22.397 19.427 22.324 19.594 C 22.27 19.654 22.14 19.871 21.934 20.244 C 21.674 20.784 21.504 21.111 21.424 21.224 C 20.924 22.717 20.55 24.247 20.304 25.814 C 20.27 26.114 20.254 26.301 20.254 26.374 C 20.254 26.654 20.347 26.851 20.534 26.964 C 20.72 27.071 21.037 27.124 21.484 27.124 C 22.117 27.124 22.667 27.061 23.134 26.934 C 23.694 26.687 24.114 26.481 24.394 26.314 C 24.56 26.221 24.714 26.134 24.854 26.054 C 24.994 25.967 25.094 25.904 25.154 25.864 C 25.207 25.757 25.27 25.704 25.344 25.704 C 25.497 25.704 25.63 25.851 25.744 26.144 C 25.744 26.444 25.677 26.707 25.544 26.934 C 25.41 27.154 25.084 27.414 24.564 27.714 C 23.484 28.407 22.4 28.754 21.314 28.754 C 21.014 28.754 20.734 28.724 20.474 28.664 ZM 27.731 27.854 C 27.671 27.741 27.581 27.624 27.461 27.504 C 27.341 27.384 27.281 27.304 27.281 27.264 C 27.281 27.064 27.235 26.907 27.141 26.794 C 27.101 26.754 27.081 26.671 27.081 26.544 C 27.081 26.244 27.228 25.734 27.521 25.014 C 27.808 24.294 28.185 23.514 28.651 22.674 C 28.765 22.561 28.908 22.364 29.081 22.084 C 29.261 21.804 29.378 21.647 29.431 21.614 C 29.431 21.541 29.461 21.471 29.521 21.404 C 29.575 21.337 29.638 21.304 29.711 21.304 L 29.711 21.134 C 29.711 20.967 30.021 20.561 30.641 19.914 C 31.255 19.274 31.758 18.831 32.151 18.584 C 32.618 18.271 33.095 18.114 33.581 18.114 C 33.915 18.114 34.205 18.207 34.451 18.394 C 34.545 18.507 34.971 18.907 35.731 19.594 L 36.771 20.524 L 36.271 21.924 C 36.098 22.424 36.011 22.881 36.011 23.294 C 36.011 24.001 36.218 24.681 36.631 25.334 C 36.725 25.541 36.911 25.737 37.191 25.924 C 37.471 26.111 37.751 26.224 38.031 26.264 C 38.445 26.337 38.651 26.541 38.651 26.874 C 38.651 27.247 38.481 27.471 38.141 27.544 C 38.068 27.564 37.958 27.574 37.811 27.574 C 36.705 27.574 35.751 26.801 34.951 25.254 C 34.878 25.141 34.781 24.934 34.661 24.634 C 34.535 24.334 34.465 24.131 34.451 24.024 C 34.338 24.171 34.198 24.347 34.031 24.554 C 33.858 24.761 33.698 24.937 33.551 25.084 C 31.518 27.117 29.911 28.134 28.731 28.134 C 28.358 28.134 28.025 28.041 27.731 27.854 Z M 28.731 26.284 C 28.731 26.377 28.831 26.407 29.031 26.374 C 29.225 26.334 29.468 26.241 29.761 26.094 C 30.048 25.941 30.341 25.744 30.641 25.504 C 32.248 24.124 33.405 22.921 34.111 21.894 L 34.731 20.884 C 34.545 20.491 34.348 20.207 34.141 20.034 C 33.935 19.854 33.748 19.764 33.581 19.764 C 33.188 19.764 32.571 20.254 31.731 21.234 C 30.891 22.214 30.125 23.367 29.431 24.694 C 29.265 25.007 29.118 25.327 28.991 25.654 C 28.858 25.981 28.771 26.191 28.731 26.284 ZM 41.477 28.974 C 41.137 28.847 40.81 28.657 40.497 28.404 C 40.177 28.151 39.96 27.931 39.847 27.744 C 39.847 27.704 39.847 27.637 39.847 27.544 C 39.847 27.451 39.877 27.391 39.937 27.364 C 39.99 27.337 40.093 27.324 40.247 27.324 C 40.56 27.324 41.063 27.361 41.757 27.434 C 42.163 27.434 42.63 27.384 43.157 27.284 C 43.677 27.177 43.967 27.061 44.027 26.934 C 44.08 26.934 44.107 26.924 44.107 26.904 C 44.107 26.864 44.033 26.771 43.887 26.624 C 43.847 26.624 43.76 26.591 43.627 26.524 C 43.5 26.457 43.417 26.424 43.377 26.424 C 43.377 26.351 43.293 26.254 43.127 26.134 C 42.96 26.014 42.773 25.907 42.567 25.814 C 42.027 25.367 41.643 25.034 41.417 24.814 C 41.197 24.601 41.113 24.447 41.167 24.354 L 41.167 24.214 C 41.033 24.214 40.89 24.034 40.737 23.674 C 40.577 23.307 40.497 22.964 40.497 22.644 C 40.497 22.311 40.64 21.844 40.927 21.244 C 41.22 20.651 41.553 20.167 41.927 19.794 C 42.447 19.307 43.123 18.794 43.957 18.254 C 44.783 17.714 45.44 17.367 45.927 17.214 C 46.247 17.087 46.563 17.024 46.877 17.024 C 47.177 17.024 47.43 17.087 47.637 17.214 C 47.877 17.367 48.113 17.584 48.347 17.864 C 48.58 18.144 48.733 18.394 48.807 18.614 C 48.807 19.027 48.767 19.424 48.687 19.804 C 48.6 20.191 48.473 20.384 48.307 20.384 C 48.287 20.384 48.26 20.391 48.227 20.404 C 48.187 20.424 48.167 20.471 48.167 20.544 C 48.167 20.624 48.13 20.724 48.057 20.844 C 47.983 20.964 47.88 21.081 47.747 21.194 C 47.333 21.494 46.997 21.644 46.737 21.644 C 46.53 21.644 46.4 21.541 46.347 21.334 C 46.307 21.294 46.27 21.237 46.237 21.164 C 46.197 21.091 46.15 21.054 46.097 21.054 C 46.077 21.054 46.043 21.021 45.997 20.954 C 45.95 20.887 45.927 20.797 45.927 20.684 C 45.927 20.631 45.95 20.571 45.997 20.504 C 46.043 20.437 46.077 20.397 46.097 20.384 C 46.21 20.384 46.397 20.164 46.657 19.724 C 46.917 19.284 47.047 18.991 47.047 18.844 C 47.047 18.731 47.033 18.664 47.007 18.644 C 46.98 18.624 46.89 18.614 46.737 18.614 C 45.283 19.267 44.38 19.764 44.027 20.104 C 43.967 20.211 43.923 20.284 43.897 20.324 C 43.87 20.364 43.82 20.384 43.747 20.384 C 43.747 20.211 43.25 20.844 42.257 22.284 C 42.223 22.324 42.183 22.437 42.137 22.624 C 42.09 22.811 42.067 22.967 42.067 23.094 C 42.027 23.247 42.007 23.331 42.007 23.344 C 42.007 23.424 42.04 23.501 42.107 23.574 C 42.173 23.647 42.26 23.727 42.367 23.814 C 42.48 23.894 42.593 23.981 42.707 24.074 C 43.68 24.801 44.357 25.347 44.737 25.714 C 45.117 26.081 45.347 26.384 45.427 26.624 C 45.667 26.997 45.787 27.334 45.787 27.634 C 45.787 27.854 45.703 28.051 45.537 28.224 C 45.37 28.391 45.117 28.547 44.777 28.694 C 44.57 28.787 44.227 28.867 43.747 28.934 C 43.26 29.001 42.783 29.034 42.317 29.034 C 42.057 29.034 41.777 29.014 41.477 28.974 ZM 50.324 27.354 L 50.154 27.354 C 49.874 27.354 49.661 27.287 49.514 27.154 C 49.361 27.027 49.261 26.924 49.214 26.844 C 49.168 26.771 49.144 26.677 49.144 26.564 C 49.144 26.491 49.211 26.147 49.344 25.534 L 49.594 24.604 C 49.781 23.844 49.948 23.211 50.094 22.704 C 50.174 22.237 50.321 21.744 50.534 21.224 C 50.748 20.697 50.874 20.377 50.914 20.264 C 51.061 19.724 51.348 18.884 51.774 17.744 L 52.614 15.484 C 53.268 13.711 53.661 12.627 53.794 12.234 L 54.244 11.004 C 54.244 10.704 54.394 10.554 54.694 10.554 C 54.954 10.554 55.171 10.697 55.344 10.984 C 55.524 11.277 55.614 11.611 55.614 11.984 C 55.614 12.264 55.558 12.534 55.444 12.794 C 55.184 13.354 54.901 14.057 54.594 14.904 C 54.288 15.757 54.088 16.314 53.994 16.574 C 53.354 18.367 52.894 19.561 52.614 20.154 C 52.614 20.227 52.588 20.357 52.534 20.544 C 52.481 20.731 52.414 20.901 52.334 21.054 L 52.034 21.664 C 52.034 21.724 51.931 22.117 51.724 22.844 C 51.464 23.644 51.304 24.231 51.244 24.604 C 51.338 24.437 51.534 24.181 51.834 23.834 C 52.134 23.494 52.414 23.211 52.674 22.984 C 53.701 22.104 54.334 21.581 54.574 21.414 C 54.801 21.287 54.988 21.167 55.134 21.054 C 55.288 20.941 55.391 20.864 55.444 20.824 C 55.444 20.731 55.548 20.684 55.754 20.684 C 55.828 20.684 55.871 20.677 55.884 20.664 C 55.891 20.644 55.894 20.597 55.894 20.524 C 55.894 20.391 56.108 20.274 56.534 20.174 C 56.968 20.067 57.351 20.014 57.684 20.014 C 57.911 20.014 58.088 20.061 58.214 20.154 C 58.348 20.247 58.518 20.454 58.724 20.774 C 59.038 21.221 59.194 21.704 59.194 22.224 C 59.194 22.524 59.141 22.834 59.034 23.154 C 59.034 23.301 59.011 23.527 58.964 23.834 C 58.918 24.147 58.894 24.414 58.894 24.634 L 58.724 25.534 L 59.174 25.534 C 59.301 25.534 59.424 25.551 59.544 25.584 C 59.671 25.624 59.751 25.654 59.784 25.674 C 59.951 25.881 60.101 25.984 60.234 25.984 C 60.401 25.984 60.484 26.047 60.484 26.174 C 60.484 26.247 60.448 26.341 60.374 26.454 C 60.301 26.567 60.198 26.661 60.064 26.734 C 59.578 27.034 59.168 27.184 58.834 27.184 C 58.514 27.184 58.188 27.034 57.854 26.734 C 57.441 26.327 57.234 25.834 57.234 25.254 C 57.234 24.954 57.291 24.597 57.404 24.184 L 57.494 23.294 C 57.528 22.847 57.544 22.567 57.544 22.454 C 57.544 22.021 57.441 21.804 57.234 21.804 C 56.974 21.804 56.478 22.034 55.744 22.494 C 55.004 22.954 54.241 23.524 53.454 24.204 C 52.674 24.884 52.051 25.571 51.584 26.264 C 51.304 26.617 51.064 26.881 50.864 27.054 C 50.671 27.234 50.491 27.334 50.324 27.354 Z" style="fill: rgb(166, 71, 183); white-space: pre;"/>
</svg>